<svg id="SvgjsSvg1034" width="288" height="288" xmlns="http://www.w3.org/2000/svg" version="1.1" xmlns:xlink="http://www.w3.org/1999/xlink" xmlns:svgjs="http://svgjs.com/svgjs"><defs id="SvgjsDefs1035"></defs><g id="SvgjsG1036"><svg xmlns="http://www.w3.org/2000/svg" data-name="Layer 1" viewBox="0 0 25 25" width="288" height="288"><path fill="#ffffff" d="M18.75,0H6.25A1.25,1.25,0,0,0,5,1.25v22.5A1.25,1.25,0,0,0,6.25,25h12.5A1.25,1.25,0,0,0,20,23.75V1.25A1.25,1.25,0,0,0,18.75,0ZM19,23.75a.25.25,0,0,1-.25.25H6.25A.25.25,0,0,1,6,23.75V20H19ZM19,19H6V5H19ZM19,4H6V1.25A.25.25,0,0,1,6.25,1h12.5a.25.25,0,0,1,.25.25ZM10,2h5V3H10Zm1.5,20a1,1,0,1,1,1,1A1,1,0,0,1,11.5,22Z" data-name="Mobile Phone" class="color0e1d25 svgShape"></path></svg></g></svg>