<svg id="SvgjsSvg1029" width="288" height="288" xmlns="http://www.w3.org/2000/svg" version="1.1" xmlns:xlink="http://www.w3.org/1999/xlink" xmlns:svgjs="http://svgjs.com/svgjs"><defs id="SvgjsDefs1030"></defs><g id="SvgjsG1031"><svg xmlns="http://www.w3.org/2000/svg" enable-background="new 0 0 122.88 108.5" viewBox="0 0 122.88 108.5" width="288" height="288"><path fill-rule="evenodd" d="M41.96,0h38.96c2.97,0,5.65,1.21,7.61,3.16c1.95,1.95,3.16,4.64,3.16,7.61v86.97c0,2.97-1.21,5.65-3.16,7.61 c-1.95,1.95-4.64,3.16-7.61,3.16H41.96c-2.97,0-5.65-1.21-7.61-3.16c-1.95-1.95-3.16-4.64-3.16-7.61V10.77 c0-2.97,1.21-5.65,3.16-7.61C36.3,1.21,39,0,41.96,0L41.96,0L41.96,0z M10.99,39.18c1.8-2-1.19-4.76-3.04-2.79l-0.03,0.03 C-2.58,47.79-2.63,60.58,7.72,72.08l0.01,0.01l0,0l0.03,0.03c1.91,1.97,4.82-0.86,3.03-2.8C1.76,59.25,1.99,49,10.82,39.33 C10.89,39.28,10.94,39.24,10.99,39.18L10.99,39.18L10.99,39.18z M111.89,39.18c-1.8-2,1.19-4.76,3.04-2.79l0.03,0.03 c10.51,11.37,10.56,24.16,0.21,35.65l-0.01,0.01l0,0l-0.03,0.03c-1.91,1.97-4.82-0.86-3.03-2.8c9.03-10.07,8.8-20.32-0.04-29.99 C111.99,39.28,111.94,39.24,111.89,39.18L111.89,39.18L111.89,39.18z M103.06,46.22c-1.66-2.12,1.49-4.62,3.17-2.61l0.03,0.04 c5.7,6.69,5.95,14.63,0.54,21.58c-1.65,2.16-4.91-0.36-3.26-2.51l0.01-0.02c3.34-4.3,4.35-9.29,1.05-14.04 C104.12,47.99,103.59,47.22,103.06,46.22L103.06,46.22L103.06,46.22z M19.82,46.22c1.66-2.12-1.49-4.62-3.17-2.61l-0.03,0.04 c-5.7,6.69-5.95,14.63-0.54,21.58c1.65,2.16,4.91-0.36,3.26-2.51l-0.01-0.02c-3.34-4.3-4.35-9.29-1.05-14.04 C18.76,47.99,19.29,47.22,19.82,46.22L19.82,46.22L19.82,46.22z M61.44,96.79c2.43,0,4.41,1.98,4.41,4.41 c0,2.43-1.98,4.41-4.41,4.41c-2.43,0-4.41-1.98-4.41-4.41C57.03,98.77,59,96.79,61.44,96.79L61.44,96.79L61.44,96.79z M34.29,93.41 H88.6V13.54H34.29V93.41L34.29,93.41z" clip-rule="evenodd" fill="#ffffff" class="color000 svgShape"></path></svg></g></svg>