<svg id="SvgjsSvg1021" width="288" height="288" xmlns="http://www.w3.org/2000/svg" version="1.1" xmlns:xlink="http://www.w3.org/1999/xlink" xmlns:svgjs="http://svgjs.com/svgjs"><defs id="SvgjsDefs1022"></defs><g id="SvgjsG1023"><svg xmlns="http://www.w3.org/2000/svg" viewBox="0 0 47.02 39.35" width="288" height="288"><g data-name="Layer 2" fill="#ffffff" class="color000 svgShape"><path fill="none" stroke="#ffffff" stroke-linecap="round" stroke-linejoin="round" stroke-width="2" d="M45.84,1.13,17.26,26.45l12.08,3.14a1,1,0,0,0,1.17-.51L46,1.26A.1.1,0,0,0,45.84,1.13Z" class="colorStroke000 svgStroke"></path><path fill="none" stroke="#ffffff" stroke-linecap="round" stroke-linejoin="round" stroke-width="2" d="M9.62,23.15l-7.83-2a1,1,0,0,1-.15-2L45.62,1a.06.06,0,0,1,.05.11l-36.05,22,4.86,14.57a1,1,0,0,0,2-.31l.79-11" class="colorStroke000 svgStroke"></path><line x1="16.06" x2="23.65" y1="38.35" y2="28.11" fill="none" stroke="#ffffff" stroke-linecap="round" stroke-linejoin="round" stroke-width="2" class="colorStroke000 svgStroke"></line></g></svg></g></svg>